PathFileType	4	(X/Y/Z)	17_2_31_p1_0-260_filt_butterworth.trc
DataRate	CameraRate	NumFrames	NumMarkers	Units	OrigDataRate	OrigDataStartFrame	OrigNumFrames
59.0	59.0	6	27	m	59.0	162	260
Frame#	Time	RHip			RKnee			RAnkle			RBigToe			RSmallToe			RHeel			LHip			LKnee			LAnkle			LBigToe			LSmallToe			LHeel			Neck			Head			Nose			RShoulder			RElbow			RWrist			RThumb			RIndex			RPinky			LShoulder			LElbow			LWrist			LThumb			LIndex			LPinky			
		X1	Y1	Z1	X2	Y2	Z2	X3	Y3	Z3	X4	Y4	Z4	X5	Y5	Z5	X6	Y6	Z6	X7	Y7	Z7	X8	Y8	Z8	X9	Y9	Z9	X10	Y10	Z10	X11	Y11	Z11	X12	Y12	Z12	X13	Y13	Z13	X14	Y14	Z14	X15	Y15	Z15	X16	Y16	Z16	X17	Y17	Z17	X18	Y18	Z18	X19	Y19	Z19	X20	Y20	Z20	X21	Y21	Z21	X22	Y22	Z22	X23	Y23	Z23	X24	Y24	Z24	X25	Y25	Z25	X26	Y26	Z26	X27	Y27	Z27	
162	2.7457627118644066	0.24293037453004038	0.5865989112017956	0.8303030617849659	0.23348397953043823	0.5981312687313196	1.2472139432053748	0.212259029801264	0.7765467835152184	1.7215230950421123	0.23658828977952592	0.5286986205541193	1.7265971683253176	0.28527906653286467	0.5783009359701003	1.7315263882936338	0.19720781572004448	0.8161571525287794	1.762153739782762	0.027650341566611322	0.548641523102848	0.8351786650014907	0.03348841827858856	0.5942663177940055	1.261989904959413	0.03414314592104128	0.6753557414921699	1.7015588837323399	0.09395220715066267	0.47108953512350893	1.704734322687133	0.037897883147768374	0.48928875708163627	1.709311990481172	0.0474662956663477	0.7363676094058456	1.7613399805751124	0.14388163169997703	0.33200580026560234	0.28636827520575925	0.17772014778257275	0.17002378460450845	0.051289484807993675	0.19072479739513698	0.16826992567830015	0.2082777609135749	0.2890135415354776	0.43655280306064753	0.3225423698536495	0.450436813901507	0.5821792410750448	0.458307025860062	0.6030637902713428	0.560295798336891	0.6351996872164418	0.6078779108878392	0.5503775746049673	0.7483873094541497	0.6270285139128359	0.5394068082867278	0.7679863460078207	0.6085629858364865	0.6087313362976798	0.7853318443399253	-0.01864928828659403	0.3560478721904481	0.316769509107089	-0.1692031471900554	0.46707219896962615	0.47972324711510705	-0.2830623416615455	0.4569755587059852	0.6869894700213134	-0.27867605452652494	0.4409772200244684	0.7809603391501011	-0.30025456134800604	0.42620000212555387	0.8031696071253456	-0.29164988557787735	0.46757279989008954	0.8077768238837221
163	2.76271186440678	0.2419390661753325	0.5861296792657633	0.8301742934752476	0.23323351182092056	0.5967909447939904	1.2468560461582414	0.21189898201847596	0.7752673227239496	1.7201792089790438	0.2371822803352986	0.5324050186364517	1.7283891112723628	0.2846444733708993	0.5807711955810718	1.7327870639468668	0.19716215976174	0.8161782416654549	1.7621288589367015	0.027683246965688538	0.5482630330107701	0.8358526842024679	0.03348653848520506	0.5942805252726959	1.2620114044370339	0.0341212503820299	0.6753922905567917	1.701481468723196	0.09219151251568801	0.47026868453038095	1.7047726082395962	0.03834950230819094	0.49006180015562145	1.7101114808252076	0.04745529767363639	0.7364384133876908	1.7613179466173887	0.14384848090849278	0.332010017421252	0.28629259520151884	0.17572250570932146	0.16913215985586905	0.05083229886798567	0.18639354311711342	0.16471762660192601	0.20838866030232547	0.28901280906897514	0.43641872278119775	0.3224730122860512	0.45041452918602026	0.5821281181319319	0.4582598771891876	0.602169450024778	0.5600147426154041	0.635853073584222	0.6106191091672374	0.5416595306472897	0.7496897686219179	0.6281507938155974	0.5345821519414644	0.7701408328133927	0.6076061769812235	0.6079230055542203	0.787504268430681	-0.01860111552426161	0.35623263141015027	0.31656788952886644	-0.16925331328776555	0.46714957029287985	0.4798004516995894	-0.28414134076605996	0.4561986812875757	0.6851334646824947	-0.2789644793307186	0.4409946889556232	0.7808751593031814	-0.3014204055919403	0.4244210991853075	0.8035740291974647	-0.29420704623783345	0.469711695850655	0.8077521635077647
164	2.7796610169491527	0.23954648259622663	0.5851520348053183	0.8292426889821765	0.23327161481380312	0.5967954729868797	1.2464042428568192	0.2112409483650969	0.7713607558664342	1.7180177222717927	0.23739836350777416	0.5340701399694123	1.7289446198718583	0.2845801688184915	0.582252239667096	1.7335766019981798	0.1971172740985085	0.8161250480506391	1.7620706645857729	0.027621000744586253	0.547849465955712	0.8355021230327556	0.033449601411374014	0.5943069173196751	1.262096841093477	0.03410894071624523	0.6754147460670817	1.7013539827794568	0.09070782997871354	0.469500885328761	1.705740707427966	0.03827247570145413	0.4904707272412524	1.7114174518448446	0.04744539925269687	0.7365186304516185	1.7613058053313546	0.1438239635186136	0.3320020998524652	0.2861954849719312	0.17339625148976626	0.16941911706588994	0.049927721443495346	0.1829281893608748	0.16219232257984878	0.20832874566635373	0.28901121683543646	0.4361450357353358	0.32212304138823034	0.44997640616303886	0.5819945036347521	0.458262985989522	0.6011790003354458	0.5598849510848312	0.6373421508293529	0.6130314312094032	0.5322044401432985	0.7544808210956657	0.6294578297910307	0.5269286865436538	0.7731526523262354	0.6071115673390554	0.6073281845358363	0.7896313173373788	-0.018609428548101322	0.3560823282271225	0.31604316521160053	-0.16924113195588222	0.46743926493463556	0.4797415396092166	-0.28466103200863785	0.4560204682570006	0.6833799925456108	-0.2792869394240383	0.44084625089492413	0.7807770621327296	-0.3045152642872731	0.42348712817729106	0.8038187007113196	-0.2967414114033844	0.4698846356487756	0.8076679819675361
165	2.796610169491525	0.23602106965398537	0.584279282517527	0.8285633967321522	0.23346119065587131	0.5971060409227377	1.2452538647073153	0.21052385582473654	0.7658643330108743	1.715969887468579	0.23722696838683402	0.5339325051403645	1.7282836792589984	0.2848139013073436	0.5829950289306182	1.733865489610392	0.1970900577096091	0.816022404335291	1.7620226970579609	0.027541314846221396	0.547639815547233	0.8349968430095355	0.03337817585546023	0.5943546975285614	1.2621177960837267	0.034094921899360496	0.6754268968115762	1.7013712758479524	0.08995671286225142	0.4689966783463059	1.707929473267785	0.03853896243723024	0.48866498280414083	1.7120461174753454	0.047444018932533485	0.736549461671522	1.7613022538246548	0.1438201648768445	0.3319654155025546	0.2861213752095415	0.17156032179954928	0.16965888059568573	0.04831094432316026	0.18093061272880345	0.16014098055350057	0.20827581173323761	0.2889840391373452	0.4356733824425477	0.32136938783986185	0.44889268513691066	0.5818262013824591	0.4583198630368673	0.6002343931386301	0.5601042787192474	0.6397061193387805	0.6145388793918717	0.5245234658644478	0.760969107608777	0.6304187861775616	0.5195026104972459	0.7759500849924371	0.6071899411659749	0.6070761430177531	0.7909396304231008	-0.01866563337201605	0.35577491952396456	0.3156608395953336	-0.16927459357292565	0.46769231819568347	0.47965919014001246	-0.28479454682491023	0.4561504899336303	0.6827948997696058	-0.27998984872931193	0.4402088528176902	0.7807610816975076	-0.3086833987308578	0.42450535620921165	0.803916141652846	-0.29847350944343176	0.4687998153236094	0.806999137792625
166	2.8135593220338984	0.2326351083762868	0.5839319372259832	0.8284155399381348	0.23368323379477857	0.5972635246211947	1.2436174453053317	0.21007085747624876	0.7615392819532508	1.7148529212921357	0.23671990233104456	0.5320424477215882	1.7267359050541156	0.285585922950974	0.5815177705912847	1.7329324208506285	0.1970862578877765	0.8159360839900097	1.7620123973265855	0.02748222518994234	0.5476225233493913	0.8347732874025089	0.03325705472607518	0.5944894526779498	1.2617614390731782	0.03399747261598706	0.6754353325309453	1.7019619913585176	0.0899409185309712	0.4688043783066457	1.7105452059003117	0.04084828709479748	0.48307720898703715	1.710168998909236	0.04745179775976219	0.736514628789789	1.7612741896972737	0.14386535530400932	0.33184148566633903	0.28609003773053676	0.1705538404480897	0.1687014707416289	0.04632605285795371	0.18022153683817124	0.1589673477354774	0.2083541681123282	0.28890321117652557	0.4351318446363403	0.32045728835032317	0.4474796861726694	0.5816937333599229	0.45838257678387345	0.599706630083732	0.5604689889677921	0.6422030899218214	0.6148147387608431	0.519206734844459	0.7666380454803295	0.6307311109541679	0.5152405210705836	0.7777620161855521	0.6075035995305187	0.6068486442421913	0.7917894623313361	-0.018739172370321508	0.3554274911049326	0.31554536888582607	-0.16930490771439516	0.46774233313885377	0.4796353810167382	-0.28481093653089595	0.4563179244856016	0.6832362465176296	-0.281336317584751	0.43896523150835987	0.780971563577786	-0.31150449368745464	0.42638815076483005	0.803807701542853	-0.29862491434369265	0.46647714148754654	0.8051664240572084
167	2.830508474576271	0.23054271515650676	0.5840520468091877	0.8284473715705367	0.2338367475364529	0.5972537682437129	1.2423083858673716	0.20995925409346883	0.7597671898378502	1.714654737006335	0.2360635054136328	0.5282644523235186	1.7250483959594802	0.28722328924661256	0.5767875116705691	1.7302839660034208	0.19710097316877123	0.8158987728075565	1.7620173823848215	0.027443229107724183	0.5476749412100844	0.8347699272008414	0.033065262024931076	0.5947650877429992	1.26079702503612	0.033732655288692195	0.675439049012927	1.7034282971407058	0.09068152237993865	0.468969906094195	1.7124983262788296	0.045575175741192894	0.47432736381955365	1.705658136298321	0.04746213442737056	0.7364735320600955	1.7611989545262388	0.14395289939062894	0.331652893445616	0.28610617231971064	0.17005350524494384	0.1655218509644895	0.04478821032619912	0.18018605430670442	0.15866251854846736	0.20883199123196597	0.28876870268829874	0.4347360819866912	0.31960817276559556	0.4463659815802737	0.5813513960066636	0.45840373244596644	0.5993678766764458	0.5607063885608679	0.6440552601368434	0.6137181846016563	0.5152981423721043	0.7703371674711293	0.6302553519805743	0.5141489395287165	0.7786599504719325	0.6076007119484419	0.6063150891015611	0.7932489111409425	-0.018772492806516005	0.35540509759713723	0.31560312870363116	-0.1692424191199245	0.46751919007974574	0.4796805256618277	-0.28481936186341844	0.45643297027900864	0.6838474264697646	-0.2829852250120859	0.4377914215482379	0.781620606104986	-0.31169757283462896	0.4276289282931423	0.8029319798734253	-0.2968438968860082	0.46249535514074597	0.8023616629392052
